<svg xmlns="http://www.w3.org/2000/svg" xmlns:xlink="http://www.w3.org/1999/xlink" width="24" height="24" preserveAspectRatio="xMidYMid meet" viewBox="0 0 24 24" style="-ms-transform: rotate(360deg); -webkit-transform: rotate(360deg); transform: rotate(360deg);"><path d="M1 10v2a9 9 0 0 1 9 9h2c0-6.08-4.93-11-11-11m0 4v2a5 5 0 0 1 5 5h2a7 7 0 0 0-7-7m0 4v3h3a3 3 0 0 0-3-3M21 3H3c-1.11 0-2 .89-2 2v3h2V5h18v14h-7v2h7a2 2 0 0 0 2-2V5a2 2 0 0 0-2-2z" fill="#626262"/><rect x="0" y="0" width="24" height="24" fill="rgba(0, 0, 0, 0)" /></svg>